<?xml version="1.0" encoding="UTF-8"?>
<svg id="Layer_1" data-name="Layer 1" xmlns="http://www.w3.org/2000/svg" xmlns:xlink="http://www.w3.org/1999/xlink" viewBox="0 0 1280 720">
  <defs>
    <style>
      .cls-1 {
        fill: url(#Orange_Yellow-4);
      }

      .cls-2 {
        fill: url(#Orange_Yellow-5);
      }

      .cls-3 {
        fill: url(#Orange_Yellow-2);
      }

      .cls-4 {
        fill: url(#Orange_Yellow-3);
      }

      .cls-5 {
        fill: url(#Orange_Yellow);
      }
    </style>
    <linearGradient id="Orange_Yellow" data-name="Orange, Yellow" x1="661.55" y1="451.03" x2="1267.04" y2="451.03" gradientUnits="userSpaceOnUse">
      <stop offset="0" stop-color="#fff23a"/>
      <stop offset=".04" stop-color="#fee52c"/>
      <stop offset=".12" stop-color="#fdd41a"/>
      <stop offset=".2" stop-color="#fdc90e"/>
      <stop offset=".28" stop-color="#fdc60b"/>
      <stop offset=".67" stop-color="#f28f3f"/>
      <stop offset=".89" stop-color="#ed693c"/>
      <stop offset="1" stop-color="#e83e39"/>
    </linearGradient>
    <linearGradient id="Orange_Yellow-2" data-name="Orange, Yellow" x1="15" y1="366.96" x2="1132.86" y2="366.96" xlink:href="#Orange_Yellow"/>
    <linearGradient id="Orange_Yellow-3" data-name="Orange, Yellow" x1="1143.42" y1="232" x2="1149.47" y2="232" xlink:href="#Orange_Yellow"/>
    <linearGradient id="Orange_Yellow-4" data-name="Orange, Yellow" x1="1122.24" y1="157.92" x2="1248.14" y2="157.92" xlink:href="#Orange_Yellow"/>
    <linearGradient id="Orange_Yellow-5" data-name="Orange, Yellow" x1="1149.47" y1="172.45" x2="1269" y2="172.45" xlink:href="#Orange_Yellow"/>
  </defs>
  <g>
    <path class="cls-5" d="M1262.05,291.42c-3.91-20.62-10.29-40.73-19.42-59.23,9.49,40.14,8.62,81.15,.22,119.64-8.11,38.49-25.02,74.29-46.71,106.07-21.49,32.08-48.55,59.95-78.21,82.7-30.26,22.86-62.05,39-95.69,44.79-33.45,5.99-67.26,2.49-97.69-10.12-15.26-6.21-29.65-14.3-42.77-24.18-3.28-2.44-6.36-5.09-9.64-7.73l-9.85-8.92c-6.37-6.17-12.74-12.35-18.72-19.12-41.94-45.52-74-103.18-105.98-164.19l-76.04,95.82c7.9,12.49,16.2,25.07,24.99,37.45,24.87,35.48,52.71,70.83,86.73,101.89,8.36,7.84,17.41,15.28,26.45,22.42l14.11,10.46c4.97,3.52,10.03,7.04,15.29,10.26,20.85,12.88,43.35,23.38,67.12,30.12,47.13,13.77,98.41,13.87,144.44-.41,46.23-13.69,86.53-41.26,117.61-72.43,31.67-31.36,57.58-67.52,76.25-106.99,18.87-39.27,30.2-82.04,32.14-124.93,1.22-21.45-.72-42.68-4.63-63.39Z"/>
    <path class="cls-3" d="M994.79,96.35c-47.27,7.08-93.28,23.93-135.29,47.07-42.21,22.95-80.72,51.5-117.05,82.01-16.39,13.86-32.29,28.3-47.79,43.04l-86.48,86.62,.8,1.08-27.05,28.86c-28.32,29.86-56.86,58.53-86.59,84.74-25.13,21.83-50.76,42.08-77.4,59.47-13.67,8.6-26.45,16.4-39.74,22.53-13.39,6.23-26.98,11.57-40.59,15.52-27.11,7.91-54.46,10.29-78.3,6.03-23.84-4.46-43.48-13.9-60.2-30.56-36.23-35-56.6-89.47-54.44-142.65,.29-13.34,2.56-26.4,5.33-39.66,3.25-13.66,7.3-27.13,12.54-40.11,10.37-26.06,25.11-50.38,43.12-71.46,36.04-42.07,85.41-71.29,135.67-75.53,12.54-1.18,25.09-.88,37.55,.7,13.55,1.87,27.11,4.83,40.08,8.88,26.05,8.2,50.45,21.05,73.31,38.57,23.05,17.21,44.56,38.69,64.7,63.03,15.36,18.76,30.04,39.09,44.33,60.33l87.58-85.54c-10.9-17.21-22.59-34.21-35.26-50.91-23.45-30.74-50.46-60.77-82.67-87.1-32.31-26.04-70.21-47.78-111.03-61.69-20.41-6.96-41.19-12.04-62.36-15.43-22.26-3.39-45.18-4-67.6-2.15-45.12,3.8-88.39,17.96-126.46,39.2-38.37,21.14-71.55,49.45-98.87,81.97-27.42,32.62-49.17,69.43-64.58,108.78-7.75,19.72-13.82,40.02-18.01,60.7-4.09,21.07-7.08,43.03-7.01,64.86-.56,43.68,7.68,87.38,24.29,128.06,17.1,40.38,42.29,78.13,76.41,108.2,16.91,15.48,37.77,29.25,59.48,38.87,21.81,10.01,45.17,15.96,68.02,18.55,46.08,5.28,90.19-2.27,129.7-16.1,19.81-6.97,38.61-15.71,56.42-25.72,8.85-5.01,17.51-10.21,25.96-15.91,8.45-5.6,15.92-11.19,23.88-16.88,30.75-23.25,58.91-48.56,84.59-75.24,25.68-26.77,49.58-54.42,72.29-82.45,6.17-7.75,12.33-15.51,18.3-23.36l76.12-98c18.3-22.37,37.11-44.25,56.61-65.24,30.18-32.64,62.46-63.02,97.53-89.46,35.37-25.96,73.63-48.48,115.91-61.65,21.09-6.58,42.69-11.59,65.11-12.85,22.22-1.35,44.96,.94,67.24,7.1-40.87-21.82-91.1-26.77-138.07-19.1Z"/>
  </g>
  <path class="cls-4" d="M1143.42,235.21s2.34-1.92,6.04-4.94c-.71-.48-1.43-.97-2.11-1.48l-3.93,6.42Z"/>
  <path class="cls-1" d="M1161.62,161.61c32.46-36.89,70.18-53.33,86.53-59.13-10.81-9.76-25.16-15.55-41.69-15.43-40.08,.31-77.41,34.95-83.4,77.37-3.83,27.14,6.15,50.85,24.3,64.36l37.12-60.65-22.86-6.53Z"/>
  <path class="cls-2" d="M1250.09,104.2c-18.45,13.78-40.98,39.91-40.98,39.91,0,0,22.08,11.78,31.38,18.92-12.09,3.49-71.88,51.66-91.01,67.24,9.85,6.68,21.86,10.53,35.32,10.43,40.08-.31,77.41-34.95,83.4-77.37,3.37-23.89-3.93-45.16-18.1-59.13Z"/>
</svg>