<?xml version="1.0" encoding="UTF-8"?>
<svg id="Layer_1" data-name="Layer 1" xmlns="http://www.w3.org/2000/svg" xmlns:xlink="http://www.w3.org/1999/xlink" viewBox="0 0 1920 1080">
  <defs>
    <style>
      .cls-1 {
        fill: url(#Orange_Yellow-4);
      }

      .cls-2 {
        fill: url(#Orange_Yellow-5);
      }

      .cls-3 {
        fill: url(#Orange_Yellow-2);
      }

      .cls-4 {
        fill: url(#Orange_Yellow-3);
      }

      .cls-5 {
        fill: url(#Orange_Yellow);
      }
    </style>
    <linearGradient id="Orange_Yellow" data-name="Orange, Yellow" x1="985.37" y1="663.96" x2="1895.06" y2="663.96" gradientUnits="userSpaceOnUse">
      <stop offset="0" stop-color="#fff23a"/>
      <stop offset=".04" stop-color="#fee52c"/>
      <stop offset=".12" stop-color="#fdd41a"/>
      <stop offset=".2" stop-color="#fdc90e"/>
      <stop offset=".28" stop-color="#fdc60b"/>
      <stop offset=".67" stop-color="#f28f3f"/>
      <stop offset=".89" stop-color="#ed693c"/>
      <stop offset="1" stop-color="#e83e39"/>
    </linearGradient>
    <linearGradient id="Orange_Yellow-2" data-name="Orange, Yellow" x1="14" y1="537.65" x2="1693.47" y2="537.65" xlink:href="#Orange_Yellow"/>
    <linearGradient id="Orange_Yellow-3" data-name="Orange, Yellow" x1="1709.33" y1="334.89" x2="1718.41" y2="334.89" xlink:href="#Orange_Yellow"/>
    <linearGradient id="Orange_Yellow-4" data-name="Orange, Yellow" x1="1677.52" y1="223.6" x2="1866.67" y2="223.6" xlink:href="#Orange_Yellow"/>
    <linearGradient id="Orange_Yellow-5" data-name="Orange, Yellow" x1="1718.41" y1="245.42" x2="1898" y2="245.42" xlink:href="#Orange_Yellow"/>
  </defs>
  <g>
    <path class="cls-5" d="M1887.56,424.16c-5.88-30.98-15.46-61.19-29.18-88.99,14.26,60.31,12.95,121.92,.33,179.75-12.18,57.83-37.6,111.61-70.18,159.36-32.29,48.19-72.94,90.06-117.5,124.25-45.46,34.34-93.22,58.6-143.77,67.3-50.25,8.99-101.06,3.74-146.77-15.21-22.93-9.33-44.55-21.48-64.25-36.33-4.93-3.67-9.56-7.64-14.49-11.61l-14.8-13.4c-9.57-9.28-19.14-18.56-28.12-28.73-63.01-68.39-111.17-155.01-159.22-246.67l-114.24,143.96c11.87,18.76,24.33,37.67,37.54,56.27,37.37,53.3,79.18,106.42,130.3,153.08,12.56,11.78,26.15,22.95,39.74,33.69l21.2,15.72c7.46,5.29,15.07,10.57,22.98,15.41,31.32,19.36,65.14,35.13,100.84,45.25,70.81,20.69,147.85,20.84,217.01-.62,69.46-20.57,130-62,176.7-108.81,47.59-47.12,86.51-101.44,114.56-160.74,28.35-59,45.37-123.25,48.29-187.69,1.83-32.22-1.08-64.12-6.96-95.24Z"/>
    <path class="cls-3" d="M1486.03,131.09c-71.02,10.64-140.14,35.95-203.26,70.72-63.41,34.48-121.28,77.37-175.85,123.2-24.63,20.82-48.51,42.52-71.79,64.67l-129.93,130.13,1.2,1.62-40.64,43.36c-42.56,44.85-85.42,87.93-130.1,127.31-37.75,32.79-76.26,63.22-116.29,89.35-20.53,12.92-39.74,24.64-59.71,33.85-20.12,9.35-40.54,17.38-60.98,23.32-40.73,11.89-81.82,15.47-117.64,9.06-35.82-6.7-65.32-20.88-90.45-45.92-54.43-52.58-85.04-134.43-81.79-214.31,.44-20.04,3.85-39.66,8.01-59.58,4.89-20.52,10.97-40.75,18.84-60.26,15.58-39.16,37.72-75.69,64.79-107.37,54.14-63.2,128.32-107.11,203.83-113.47,18.84-1.77,37.69-1.32,56.41,1.06,20.36,2.81,40.73,7.26,60.22,13.34,39.13,12.32,75.79,31.63,110.13,57.94,34.63,25.86,66.94,58.12,97.2,94.7,23.07,28.18,45.13,58.73,66.6,90.63l131.57-128.51c-16.38-25.85-33.94-51.4-52.98-76.48-35.23-46.19-75.8-91.3-124.2-130.86-48.54-39.12-105.49-71.78-166.8-92.69-30.66-10.45-61.89-18.08-93.69-23.19-33.44-5.09-67.88-6.01-101.55-3.23-67.79,5.71-132.79,26.99-189.99,58.89-57.65,31.76-107.49,74.29-148.54,123.14-41.19,49-73.87,104.32-97.02,163.42-11.65,29.63-20.77,60.13-27.06,91.2-6.14,31.66-10.64,64.65-10.54,97.45-.84,65.62,11.54,131.28,36.5,192.39,25.7,60.66,63.53,117.38,114.79,162.56,25.41,23.26,56.74,43.95,89.36,58.4,32.77,15.04,67.87,23.97,102.19,27.87,69.23,7.93,135.5-3.41,194.86-24.2,29.76-10.47,58.01-23.6,84.76-38.65,13.3-7.52,26.3-15.34,39-23.9,12.7-8.41,23.92-16.81,35.88-25.36,46.19-34.93,88.5-72.96,127.09-113.04,38.58-40.22,74.49-81.76,108.6-123.88,9.26-11.65,18.53-23.3,27.49-35.09l114.36-147.23c27.5-33.61,55.75-66.48,85.05-98.02,45.35-49.03,93.83-94.68,146.52-134.41,53.14-39,110.62-72.84,174.15-92.62,31.69-9.89,64.14-17.41,97.82-19.3,33.38-2.03,67.55,1.42,101.02,10.66-61.41-32.78-136.87-40.22-207.43-28.7Z"/>
  </g>
  <path class="cls-4" d="M1709.33,339.71s3.51-2.89,9.08-7.42c-1.07-.73-2.14-1.45-3.18-2.22l-5.9,9.64Z"/>
  <path class="cls-1" d="M1736.67,229.14c48.77-55.43,105.44-80.12,130-88.83-16.24-14.66-37.8-23.37-62.63-23.18-60.21,.46-116.31,52.5-125.3,116.25-5.75,40.78,9.24,76.39,36.5,96.69l55.77-91.11-34.34-9.81Z"/>
  <path class="cls-2" d="M1869.58,142.88c-27.72,20.71-61.58,59.96-61.58,59.96,0,0,33.17,17.69,47.14,28.43-18.16,5.25-107.99,77.61-136.74,101.02,14.8,10.04,32.84,15.83,53.06,15.67,60.21-.46,116.31-52.5,125.3-116.25,5.06-35.9-5.9-67.85-27.19-88.83Z"/>
</svg>